<svg id="Layer_1" data-name="Layer 1" xmlns="http://www.w3.org/2000/svg" viewBox="0 0 1426.79 666.65"><defs><style>.cls-1{fill:#fff;}</style></defs><title>Brand Signature V2 Utama Putih</title><g id="_Group_" data-name="&lt;Group&gt;"><path class="cls-1" d="M353.86,337.1a8.49,8.49,0,0,0-1-.81l21.86,21.35Zm0,0a8.49,8.49,0,0,0-1-.81l21.86,21.35Z"/></g><path class="cls-1" d="M355.07,337.33a8.35,8.35,0,0,0-1-.8l21.7,21.18Zm0,0a8.35,8.35,0,0,0-1-.8l21.7,21.18Z"/><path class="cls-1" d="M269.42,252.26l.45.46,1.82,1.86.82.81,51.06,51.93a1.1,1.1,0,0,0,.77.32l18.76.14a1,1,0,0,0,.76-.3l52.95-52.09,3.73-3.67L408,235l-67-117.47-4.42-8L318,142.32l-2.95,5.38-13.2,24.06L289.8,193.69l-.75,1.38-10.11,18.34-11.88,21.38a1,1,0,0,0-.12.66l2.19,16.21A1.06,1.06,0,0,0,269.42,252.26Z"/><path class="cls-1" d="M395.7,406.4l-13.47-13.25-4.54-4.47L363.17,374.4l-14.31-14.07-5-4.92a1.1,1.1,0,0,0-.76-.31l-18.76.14a1.11,1.11,0,0,0-.77.33L309,370.39l-6.07,6.14L287.4,392.36l-3.81,3.86-13.83,14.07-2.85,2.9-4.62,4.69a1.08,1.08,0,0,0-.18,1.28l6.51,11.67.24.45,6.27,11.25h0l4.08,7.34,3.42,6.15,5.1,9.15,2.32,4.18,1.62,2.9,6.61,11.87,2.51,4.51,1.35,2.41,7.63,13.72,1.86,3.33,5.09,9.14,3.52,6.31,1.94,3.48,6.23,11.19L330,541l4,7.25a1.07,1.07,0,0,0,1.87,0l2.84-5.08,2.1-3.8,19.37-34.76,1.53-2.76,10-17.88,2-3.56,2-3.71,2.5-4.5,3.16-5.67v0l3.72-6.64,2.07-3.74,3.41-6.11,2.57-4.62,1.59-2.84.63-1.15,6.09-10.93,1.36-2.45v0l5.44-9.79Z"/><path class="cls-1" d="M282.82,369.29l3.41-3.45,24-24.32a1.08,1.08,0,0,0,.31-.76V322.13a1.07,1.07,0,0,0-.31-.76l-54.39-54.9a1,1,0,0,0-.61-.31L238.71,264a1,1,0,0,0-.66.13L162.5,306.84l-18.57,9.78-11.45,6.48-15.95,8.71a1.07,1.07,0,0,0,0,1.88L127.79,340l31.64,17.67,87.71,47.09a1,1,0,0,0,1.27-.2l22.09-22.78Z"/><path class="cls-1" d="M531.4,320.87l-56.63-32.35-.69-.4-4.57-2.69-.55-.32-6.21-3.65-.54-.32-2.81-1.65-4-2.37,0-.06L453.46,276l-2.57-1.44-.92-.51-.35-.19-3.37-1.9h0l-4.2-2.35-1.22-.69-5.64-3.16-1.31-.72-2.21-1.24a1.07,1.07,0,0,0-.66-.12l-3.2.42-7.82,1-.42.06-4.7.6a1.08,1.08,0,0,0-.62.31l-.72.72-8.69,8.58-5,4.93-10.19,10.08-4.25,4.19-4.33,4.29-29,28.66H352v8a1.08,1.08,0,0,0,.32.77l1.11,1.09,21.71,21.19h0l.1.12h0l1.43,1.4.11.11.46.45.31.31,3.8,3.72.75.73,2.94,2.88.27.27,1,1,3.38,3.32,1.19,1.17.66.65,2.2,2.16,8.5,8.35h0l3.62,3.58,5.75,5.63.89.88.88.87,8.39,8.65,109.37-60.6a1,1,0,0,0,.55-.93l.15-21.51A1.09,1.09,0,0,0,531.4,320.87Z"/><path class="cls-1" d="M438.07,228,354.12,77.34a21.59,21.59,0,0,0-18.87-11.06l-.37,0-.36,0a21.6,21.6,0,0,0-18.87,11.06L231.7,228,77.08,315.83a21.65,21.65,0,0,0,.25,37.9L230.92,437.1l28,50.23.45.81,4.49,8,.42.79,51.41,92.28a21.62,21.62,0,0,0,18.93,11.13c.11,0,.2,0,.3,0s.2,0,.32,0a21.62,21.62,0,0,0,18.92-11.13L405.53,497l.42-.79,4.49-8,.45-.81,28-50.23L569,366.46V302.38ZM551.37,355a1.08,1.08,0,0,1-.57.94L428.44,423.62l-57.82,102.6-27.1,48.67a9.84,9.84,0,0,1-17.17,0l-38-68.3-.62-1.1-12.82-23-.52-.86-.29-.59-31.54-56.64a1,1,0,0,0-.43-.43L90.17,341.49a9.83,9.83,0,0,1-.11-17.22l122.79-68.88,14.66-8.22,1.46-.83,2.68-1.5a9.91,9.91,0,0,1,2-.82,8.91,8.91,0,0,1,2.71-.41,7,7,0,0,1,1.52.07l6.85,1L247,245a1.07,1.07,0,0,0,1.21-1.2l0-.36-.41-3-1-7.41-.23-1.65v-.13l.17-.3h0l1.55-2.77s0,0,0,0l2.5-4.52L256.7,213l9.36-16.82,1.34-2.38,3.11-5.63L280.1,171l25.34-45.5,1.88-3.36,19-34.17a9.84,9.84,0,0,1,13.36-3.88,10.12,10.12,0,0,1,2.72,2.24h0v0a9.43,9.43,0,0,1,1.66,2.81L420.06,217,428,231.23l-.08.56-.13.89-1,7.41-.41,3,0,.36a1.07,1.07,0,0,0,1.21,1.2l2.34-.33,5.67-.81.4.24.47.26,9.56,5.46.88.5,15.56,8.9,2.21,1.25,6.64,3.8.36.21,79.5,45.41a1,1,0,0,1,.54.94Z"/><polygon class="cls-1" points="394.73 442.53 393.14 445.38 393.14 445.37 394.73 442.53"/><g id="_Group_2" data-name="&lt;Group&gt;"><path class="cls-1" d="M672.75,173.39h3.48l17,1.58h5.21c6.1.63,9.16,1.16,9.16,1.58a36.85,36.85,0,0,1,9.31,4.73q2.52,1,6.63,6.79.63,0,2.21,6a7.32,7.32,0,0,1,.63,2.21v3.32l.16,3.79q-.63,9.15-1.26,9.15c-1.69,4.11-3,6.43-4,7q-4.57,4.26-5.21,4.26-5.52,1.91-6,2.37,0,.8,1.74,1.11a79.13,79.13,0,0,1,11.52,5.84c3.26,3.16,4.9,5,4.9,5.37l2.52,5.68q-.32,16.42-1.1,16.42-1.89,5.52-2.37,6.47-3.95,5.53-4.58,6.16c-3.26,2.95-5.1,4.47-5.52,4.58q-7.59,3.47-10.42,3.47,0,.63-20.05,1.89-7.59.79-14.37,2.06l-18.16-.79a122.23,122.23,0,0,0-14.21-1.27q-.32,0-1.1-12.31-.32-2.69-.47-10.89l.31-7.9q-.79-19.89-.79-31.73a198.71,198.71,0,0,1,1-22.42l-.63-7.58A90.51,90.51,0,0,1,639.76,175q6-1.42,26.84-1.42Zm.79,29.37-.79,6.63.79,6.63,9.16-.32c4.32-1,6.47-1.68,6.47-1.89a31.43,31.43,0,0,0,2.37-5.06q-2.68-5.2-3.16-5.21a36.08,36.08,0,0,1-5.84-1.26Zm0,37.25v.16l-.79,7.27.79,7.26,1.27-.16q10.58,0,13.42-1.11c1.89-.41,2.84-.89,2.84-1.42a44.43,44.43,0,0,0,2.52-4.89L690,241.28l-7.1-1.58Z"/><path class="cls-1" d="M834.58,173.39a51.19,51.19,0,0,1,14.52,2.53l.16.15v.16a67.52,67.52,0,0,0,1.42,13.9,124.31,124.31,0,0,0-.95,16.26v5.05l1.11,8.52-.47,7.27.15,7.57c-.94,4.53-1.42,7.11-1.42,7.74v6.16l.16,1.1-4.73,15.95a132.64,132.64,0,0,1-10.27,12.47L828.58,283q-6.95,2.06-23.21,5.21l-10.1.15h-2.69a76.77,76.77,0,0,1-19.73-3.15q-7.74-2.85-9.16-4.42a22.52,22.52,0,0,1-6.31-5.21c-2.74-2.74-4.16-4.68-4.27-5.84q-6-12.63-6-15.95l-.94-4.26-.32-8.21.16-5.69-1-8.36.79-7.27-1.42-7.57,1.42-21.79.16-.16v-.16l-1.11-7.42q1.11-6.15,1.58-6.79,10.42-2.2,14.84-2.21a110.12,110.12,0,0,1,21.95,1.9v13.58l-.79,9.78,1.42,15.32-.16,1.58v4.89c0,1-.37,4.05-1.1,9.32q1.26,13.41,1.26,16.26,5.69,6.63,6,6.63l7.89.63c5.9-.42,8.84-.79,8.84-1.1l5.21-6.16.32-10.9v-4.73a63.81,63.81,0,0,1,1-8.37v-.63l-1-22.89.47-7.9-.79-7.58q1-7.73,1.27-7.73a49.1,49.1,0,0,1,6.79-1.58h6.31Z"/><path class="cls-1" d="M977.58,173.39h2.69l9.48,1.58,14.54.31q.32,0,1.9,17.21v2.21l.32,11.53-.32,7.73.32,7.74-.32,7.58,1.26,7.89-1.26,7.58.79,7.58a166.5,166.5,0,0,1-1.42,16.89l-.64,13.26q0,.64-4.44,1.74c-.84.63-4,.95-9.51.95a53.64,53.64,0,0,0-12.37-1.42,57.91,57.91,0,0,1-8.72-.95v-.16q.95-6.78.94-8.52v-.63c0-3.27.16-7.63.48-13.11L971,253q0-4.74.79-15.16c-.74-4.84-1.1-7.73-1.1-8.68v-6.31q-.79,0-2.37,5.68a135.11,135.11,0,0,0-5.53,17.21,70.62,70.62,0,0,1-3.31,13.42l-4.27,9.47q-2.21,7.74-4.1,10.89c-1.16,2.43-1.84,3.63-2.05,3.63q-8.06.79-16.42,1.27-8.37-1.26-8.37-1.58-2.52-7.26-5.52-15.16-1.74-7.58-3.16-9.78-3.17-5.54-3.48-8.53a114.22,114.22,0,0,1-3.47-13.58q-3.78-13.26-4.1-13.26c-.53.21-.79,1.11-.79,2.68l-.32,4.9.79,7.42q0,5.83-1,15.31.48,8.37,1.27,15.16l-.32,7.89a64.91,64.91,0,0,1,1.9,7.42L899,284.54l-7-.63a134.2,134.2,0,0,1-14,1.26l-6.47-2.84q-.94-4.74-.95-16.58v-4.42q0-1.89-.94-8.84l1.1-7.74-1-7.73.32-7.58-.63-7.74.79-24.63.94-6.16-1.1-7.73c1.37-5.26,2.16-7.9,2.37-7.9a169.93,169.93,0,0,1,23-1.57l7.73,1.26,8.23-1.11q7.44,1.9,7.44,2.37,3.48,7.58,3.48,9.32a23.41,23.41,0,0,0,2.53,7.26q2.54,4.42,2.53,7.1.63,5.85,1.59,6.79c2.11,4.32,3.16,7.21,3.16,8.69A16.37,16.37,0,0,0,934.9,222a26.4,26.4,0,0,1,3,7.57l1,3.32h.31A109.78,109.78,0,0,0,945.81,213l2.69-9a98,98,0,0,1,4-15.47,28,28,0,0,0,2.84-11.21l.32-1.9Q971.11,173.4,977.58,173.39Z"/><path class="cls-1" d="M1043.61,173.39q16.58.48,16.57,1,5.85,1.26,5.85,1.58l.31,8.52-.79,19.1v1.9L1066,214q-.65,8.22-.64,13.27,0,9.32,1.11,30.15v2.21l-1,8.05.79,7.74q-.63,7.58-1.1,7.58a66.65,66.65,0,0,1-7.42,1.73h-5.37l-9,.48a42.32,42.32,0,0,1-13.74-2.06l-1.1-7.73.79-7.89q-.48-8.37-1.27-15.32l.79-7.73-.31-7.74.31-7.42-.31-7.74.63-15.31-.63-7.74V196.6a185.62,185.62,0,0,1,1.26-21.32Q1040.3,173.39,1043.61,173.39Z"/><path class="cls-1" d="M672.91,317.87l7.58.95,7.89-.47q7.26,1.26,16,2.21,7.42,3.46,8.21,4.26a52.73,52.73,0,0,1,7.42,6.63l2.68,3.16v.15L710,349.13a58.42,58.42,0,0,1-9.15,8.21l-1,.79q-11.05-8.83-13.1-8.84l-6.48-.63a46.21,46.21,0,0,0-5.84,1.26L671,354q10.89,7.41,11.21,7.42a134.5,134.5,0,0,1,16.26,4.1c5,2.32,7.52,3.74,7.74,4.26a63.91,63.91,0,0,1,10.57,10.9l2.84,7.1v7.26q-1.57,17.69-2.68,17.69,0,1.1-6.63,12.15-13.74,8.68-16.89,9-3,1.26-10.11,1.9l-1.73.15-10.11-.47H660.76q-10.43-.94-10.42-1.89l-12.79-5.37a35.86,35.86,0,0,1-7.58-6.32c-1.79-1.78-2.68-2.84-2.68-3.15a72.2,72.2,0,0,1,5.52-7.27A64.91,64.91,0,0,0,639.6,406q3.15-5.54,5.53-7.58,4.26-3.94,4.73-3.95a62.28,62.28,0,0,0,13.26,8.84c.64.85,2.79,1.27,6.48,1.27l4.26.15,8.37-5.05q-5.06-5.52-5.69-5.52-7.1-2.69-14.21-6c-5.26-.95-8.15-1.68-8.68-2.21q-4.11-2.85-12.31-7.9-5.54-7.72-5.53-8.84a33.42,33.42,0,0,1-1.89-4.89,142.3,142.3,0,0,0,.94-15.16A66,66,0,0,1,639,335.55q0-.94,5.84-6.63,6.63-6,8.37-6a58.46,58.46,0,0,1,12-4.57Z"/><path class="cls-1" d="M765.9,321l7.26.63,7.58-.63,14.84,1.26,7.58-1,7.11,1.74,1.57,7.11-2.05,21.63c0,.52-.1.78-.31.78l-7.11.32a116.45,116.45,0,0,0-15.94-1.26,105.43,105.43,0,0,0-15.95,1.42l.32,9.16.47-.16h7l14.52.31,9.63-.31h5.21l.16.16v.15a157.31,157.31,0,0,0,1.42,18.32l.32,2.84c-1.06,4.74-1.74,7.1-2.06,7.1l-1.1.16h-3.16q-6.79,0-10.26-.31l-7.58.79a114.49,114.49,0,0,1-15.63-1.11v10.1h.16a85.66,85.66,0,0,1,14.68,1.11l7.11-.32,7.1.64,14-1.43a78,78,0,0,1,.47,9v4.9c0,.94.37,4,1.11,9.15q-1.74,7.28-2,7.42l-7.11,1.58-22.73-.47-9.79.32h-3.63l-9.95.63q-17.68-.63-17.68-1.27c-3.9-.84-5.84-1.36-5.84-1.57q-.8-10.11-.79-17.84V412q0-9,1.1-19.9l-.79-7.57.16-7.58-.47-7.9q1.26-17.67,1.26-21.78l-.63-9a72.46,72.46,0,0,1,1.42-15.63l6.32-1.11,6.79.16h1.26Q758.17,321.66,765.9,321Z"/><path class="cls-1" d="M860.94,321c4.84,1.16,7.26,1.89,7.26,2.21v6.31l-.47,11.37v4.74l-.16.16.16.15v.32a122.56,122.56,0,0,0,.95,15.16L868.2,369l.16,6.79.16.79q-1.26,10.89-1.26,15.47l.79,7.58,7.1.48,7.26-.32,7.11,1.11L904,399l1.27,8.37-.48,8.05.48,7.74q-1.74,7.57-2.06,7.57l-.94.16A106.66,106.66,0,0,0,889,432l-14.2.79-7.27-.95q-8.37.79-14.52.79a140.65,140.65,0,0,1-15.95-1.74l-5.68-.31-.16-.48.16-6.94-1.42-7.9,1.26-7.42q0-18.94-.63-31.1L831,364v-.63q0-6-.48-17.68a95.18,95.18,0,0,1,1.11-15l-.32-7.26q0-.31,8.53-1.11l6.15-1.1,7.42.47Z"/><path class="cls-1" d="M980,321q7.74,1.58,7.74,2.21l6.63,14.05q1.89,7.74,3.79,10.89c.94,2,2.37,5.79,4.26,11.37a110.75,110.75,0,0,1,7.74,16.26l7.42,19.58A62.61,62.61,0,0,0,1022,408c.52.84,1.42,3.9,2.68,9.16q3.94,7.1,3.95,10.58l.79,3.63a66.9,66.9,0,0,1-14.84,1.26l-.32.16-24.31-1.42q-.48-.79-2.37-9l-3-7.27-6.95,1.27-6.94-.48-13.9.79L950,415.12a163.44,163.44,0,0,1-4.73,16.27l-.16.15q-9.63.79-22.58.79h-9l-7.74-1.73v-.16q3.63-9.15,9.16-25.1A125.39,125.39,0,0,0,921.41,387a146.65,146.65,0,0,0,7.1-17,128.46,128.46,0,0,0,4.58-12.47l7.11-13.89,4.89-14.37,3.95-6.47a128.92,128.92,0,0,1,15.15-1.27l7.74.48ZM967.51,361a66.42,66.42,0,0,0-4.42,12.16q-3.17,7.42-3.16,8.52l-.79,5.85h.16l7.58.15,9.47-.47A53,53,0,0,1,973,376.13q0-1.74-3.78-10.58L967.67,361Z"/><path class="cls-1" d="M1099,321l8.21,1,6.47-.16a76.58,76.58,0,0,1,7.74,1.42l.47,6.31-.16,14.37q-.32,9.63-.94,9.63l-6.16-1.1-8.84.47h-7.58l-4,.16a114.27,114.27,0,0,1,1.42,15.63l-.63,7.73q.32,14.37.79,24.32v3.31a47.64,47.64,0,0,1-1.58,10.9l.63,7.73-.79,7.9a95.92,95.92,0,0,0-13.89,2.21,81,81,0,0,0-9-1.11H1066q-7.26-.94-7.26-1.42v-3.16a110.78,110.78,0,0,0-.79-12l.63-7.73-.63-7.74.79-7.73-1.58-7.74.63-7.74-.31-7.73q.32-9.31.94-15.16l-19.89-1.1-6.16.47v-.16l-2.05-6.94q.48-9,.48-15.32c.73-5.15,1.26-7.73,1.57-7.73l6.95-1.58,14.53.63.15.16h.16l7.58-.64,7.58.64Z"/><path class="cls-1" d="M1197.22,321q7.72,1.58,7.73,2.21l6.63,14.05q1.9,7.74,3.79,10.89,1.43,3,4.27,11.37a109.68,109.68,0,0,1,7.73,16.26l7.42,19.58a63.23,63.23,0,0,0,4.42,12.63c.53.84,1.42,3.9,2.69,9.16q3.94,7.1,3.94,10.58l.79,3.63a66.84,66.84,0,0,1-14.84,1.26l-.31.16-24.32-1.42q-.47-.79-2.36-9l-3-7.27-7,1.27-6.95-.48-13.89.79-6.79-1.58a160.66,160.66,0,0,1-4.74,16.27l-.15.15q-9.63.79-22.58.79h-9L1123,430.6v-.16q3.63-9.15,9.15-25.1a125.51,125.51,0,0,0,6.48-18.32,148.43,148.43,0,0,0,7.1-17,131.23,131.23,0,0,0,4.58-12.47l7.1-13.89,4.9-14.37,3.94-6.47a129.05,129.05,0,0,1,15.16-1.27l7.74.48ZM1184.75,361a65.7,65.7,0,0,0-4.43,12.16q-3.15,7.42-3.15,8.52l-.79,5.85h.16l7.57.15,9.48-.47a52.35,52.35,0,0,1-3.32-11.05q0-1.74-3.79-10.58L1184.9,361Z"/><path class="cls-1" d="M1345.24,321q8.09,0,11,1.42c1.69.32,2.53.74,2.53,1.26q.79,8.22.79,15.79v6.95q.63,6.15,1.27,24.31v2.68l-.63,13.11v2.84l.15,10.42.16.16v.16a94.57,94.57,0,0,0-1.42,18.31v3.79q-.63,9-1.1,9a85,85,0,0,1-13.77,1.26l-1.43-.16h-4.27a120.53,120.53,0,0,1-17.09-1.58,35.58,35.58,0,0,0-6.17-10.1q-1.59-1.74-4.59-9.47-7.12-11.52-11.4-19.58a105.73,105.73,0,0,1-7.28-11.52l-.47-.32v.16l.31,6.79-.79,7.42q1.74,17.21,1.74,21.94l-1,7.58,1.58,7.1a45.6,45.6,0,0,1-13.89,2.06l-14.37-.32q-5.83-1.58-6.47-1.89-.63-8.21-1.58-15l.16-7.74.16-.16-.16-.63v-3.79l.47-10.73.16-.16-.16-.63v-5.53c0-.94-.37-4-1.1-9.15l.79-24.48q.63,0,1.1-25.1a21.09,21.09,0,0,0,.16-4.26l14.21-1.74,16.1.95,5.53,1.11a103,103,0,0,0,8.84,13.1q6.32,14.2,7.42,15.47,5.37,6.31,11.68,19.26c1.68,4.42,2.63,6.69,2.84,6.79.32-.31.79-2.73,1.43-7.26V370l-1-7.73V355.6l-.32-9,.32-7.27v-.47l-1-15.31q0-.31,6.34-2.06l7,.63Z"/></g><g id="_Group_3" data-name="&lt;Group&gt;"><g id="_Group_4" data-name="&lt;Group&gt;"><path class="cls-1" d="M647.37,469.72h1.69c1.86.34,3.13.56,3.82.66a8.6,8.6,0,0,1,2.92.66,4.71,4.71,0,0,1,1.93,1.18,19.57,19.57,0,0,1,2.88,2.12,16.46,16.46,0,0,1,2.4,3,29,29,0,0,1,1.46,3.25,7.57,7.57,0,0,1,.75,1.79v1.88l.33,5.28a40.63,40.63,0,0,1-1,4.95,14.4,14.4,0,0,1-1.64,3.06,8.31,8.31,0,0,1-1.89,2.12l-2.54,2.26a36.16,36.16,0,0,0-4.34,2,14.73,14.73,0,0,1-2.92.56h-3.86a21.31,21.31,0,0,0-2.78.42q-2.53-.46-7.25-1.74l-4.1-2.92a11.1,11.1,0,0,1-1.65-2c-1.41-2.7-2.12-4.09-2.12-4.19l-.71-4.61.15-2.41-.1-2.59,0-2.16a29.48,29.48,0,0,0,1.13-3.11,4,4,0,0,1,.71-2,6.29,6.29,0,0,1,1.5-1.93,15.21,15.21,0,0,0,2.69-2.35,2.31,2.31,0,0,1,1.27-.95,12.52,12.52,0,0,1,2.92-1.17l3.25-.9h1.65Zm-.43,10.46-2.21-.14a19.09,19.09,0,0,0-2.07,1.31,9.15,9.15,0,0,0-1.37,2.12,5.51,5.51,0,0,0-.61,1.75l-.1,1.88a9.31,9.31,0,0,0,.29,2.64,7.28,7.28,0,0,0,.94,2.21c.6,1,1,1.46,1.32,1.46a6.94,6.94,0,0,0,1.88.71l1.93.19c1.76-.1,2.64-.22,2.64-.38,1.2-.41,1.79-.67,1.79-.8A12.83,12.83,0,0,0,652.6,491a25.19,25.19,0,0,0,1-4,9,9,0,0,0-.56-3.15,3.55,3.55,0,0,0-.9-1.75,4.34,4.34,0,0,0-1.6-1.46l-1.37-.7Z"/><path class="cls-1" d="M676.1,479.23a17.18,17.18,0,0,0,2.69.43l1.27,0c.31,0,.47,0,.47.14v2l-.38,2.21c.13,1.13.21,2.53.24,4.19l-.24,2.22.05,1.93a19.68,19.68,0,0,0,.66,2.49L682.7,496c.91-.66,1.5-1.11,1.79-1.36l.7-2.17-.28-2.12c.16-1.47.24-2.42.24-2.83v-2.87l.19-2.73h0l-.42-2.17a42.23,42.23,0,0,1,4.36-.42l2.11.28,2.16-.19a8.48,8.48,0,0,1,2.06.43c.28,1.44.42,2.26.42,2.45v2l-.32,2.78a26.88,26.88,0,0,1,.37,4.81l-.33,2.4c.13,1.7.22,3.3.28,4.81a25.29,25.29,0,0,1-.56,4.94,24,24,0,0,0-4,.33l-2.07-.23-2.11.28a6.83,6.83,0,0,1-2.2-.52l.19-2.45c-.07-.09-.11-.14-.15-.14a14.1,14.1,0,0,1-2.82,2.87c-1.32.13-2.66.3-4,.52a20.83,20.83,0,0,1-4.52-.75,8.19,8.19,0,0,1-2-1.6,6.27,6.27,0,0,1-1.61-2.41l-.42-1,.14-2.22a24.48,24.48,0,0,1-.33-2.54l0-2-.24-2.59.15-2.4-.29-2.59a23.15,23.15,0,0,0,.38-4v-.66a9.36,9.36,0,0,1,2.54-.33h1.65Z"/><path class="cls-1" d="M704.22,473.68a23.77,23.77,0,0,0,3.07.33h3a7,7,0,0,1,2.31.33l.24,2.59-.29,2.68,2.64-.23a8.78,8.78,0,0,1,2.59.28v.09l.14,2.64q0,2.92-.18,4.71h-.05l-3.82-.05h-1.36l0,2-.09,2.4c.22,1.58.47,3.07.75,4.48l2.22.8,1.79-.52h.05l.51,2.5q-.42,2.35-.42,2.73v2.07a7.28,7.28,0,0,1-1.7.76l-1.88.42q-4.25-.37-6.45-.75l-1.84-.62a9.11,9.11,0,0,1-2.17-2.63,3.66,3.66,0,0,1-.75-2q-.24,0-.28-6.07l-.1-1c.13-1.82.19-3.3.19-4.43l-.05,0h0l-1.65.14A6.13,6.13,0,0,1,699,487l-.43-4.9a12.07,12.07,0,0,1,.43-2.4l1.65-.28a7.84,7.84,0,0,0,1.46.28l0-.28a37.23,37.23,0,0,1,.33-5.23Z"/><path class="cls-1" d="M725.61,468.4l2.12.19,2.17-.19A10.59,10.59,0,0,1,732,469l.14,2.41-.47,2.59.19,2.45-.05.47,0,2.07.38,2.35,1.7-1.64a10.61,10.61,0,0,1,2.78-.71h1.13c.56,0,1.58-.06,3.06-.19a43.53,43.53,0,0,1,4.52,2.12,9.61,9.61,0,0,1,2,2,8,8,0,0,1,1.36,2.78,16.54,16.54,0,0,1,.76,4.43l.19,1.5a45.32,45.32,0,0,0-.33,4.95,13.6,13.6,0,0,1-1.56,3.2A9,9,0,0,1,743,504l-2.26.38-2.45-.1c-.91.19-1.64.32-2.17.38a7.88,7.88,0,0,1-2.87-1c-.85-.44-1.29-.76-1.32-.95a6.21,6.21,0,0,1-1-1.32h-.05v.05l.1,2.36c-.44.12-1.28.29-2.5.51l-2.31,0c-2.39-.28-4-.42-4.71-.42,0-.1-.22-.91-.56-2.45l-.1-4.24.24-7c0-4.52-.1-7.77-.28-9.75l.42-2.21-.28-2.36.14-2.36-.14-2.3a8.12,8.12,0,0,1,.56-2.31A28.07,28.07,0,0,1,725.61,468.4Zm6,23.27c.32,1.57.55,2.36.71,2.36a6.39,6.39,0,0,0,1.46,1.27l1.88.56,2.12-.66a9.22,9.22,0,0,0,1.46-1.55l.52-2a19.88,19.88,0,0,0-.47-2.16,6.36,6.36,0,0,0-2.45-1.42,6,6,0,0,0-1.22-.47c-1.57.41-2.36.69-2.36.85-.88.72-1.32,1.15-1.32,1.27Z"/><path class="cls-1" d="M764.09,478.29l1.94,0,3.15,0a8.1,8.1,0,0,1,3.16.71,14.65,14.65,0,0,1,3.91,2.07,17.47,17.47,0,0,1,1.88,1.51,9.51,9.51,0,0,1,1.37,1.84,52.75,52.75,0,0,1,1.13,5.27c.12,1.07.23,2.48.33,4.24a31.3,31.3,0,0,1-2.31,5.56c-.54,1.07-.93,1.63-1.18,1.7a9.11,9.11,0,0,1-2.87,2.11c-.25.32-1.34.71-3.25,1.18a25,25,0,0,1-4.71.47,28.65,28.65,0,0,1-5.09-.56q-2.07-1-4.38-2a13.65,13.65,0,0,1-2.83-3,2.87,2.87,0,0,1-.89-1.84,25.52,25.52,0,0,1-1-5.13l-.1-1a31.1,31.1,0,0,1,.76-5.18l.75-2.08c2.17-2.35,3.64-3.72,4.43-4.09a5.86,5.86,0,0,1,2.17-1.09,4.66,4.66,0,0,1,2.07-.52Zm-1.31,13.14a9.22,9.22,0,0,0,.33,2.22,8.35,8.35,0,0,0,1.64,1.55c.69.19,1.32.4,1.89.62a16.91,16.91,0,0,0,2.21-.85l1.32-1.46.28-2.08-.18-2.07-1.65-1.55-2-.19a10,10,0,0,0-2.12.28l-1.32,1.56Z"/><path class="cls-1" d="M791.13,479.23a17.18,17.18,0,0,0,2.69.43l1.27,0c.31,0,.47,0,.47.14v2l-.38,2.21c.13,1.13.21,2.53.24,4.19l-.24,2.22.05,1.93a17.88,17.88,0,0,0,.66,2.49l1.84,1.13c.91-.66,1.5-1.11,1.79-1.36l.7-2.17-.28-2.12c.16-1.47.24-2.42.24-2.83v-2.87l.18-2.73h0l-.42-2.17a42.23,42.23,0,0,1,4.36-.42l2.11.28,2.16-.19a8.48,8.48,0,0,1,2.06.43c.28,1.44.42,2.26.42,2.45v2l-.32,2.78a26.88,26.88,0,0,1,.37,4.81l-.33,2.4c.13,1.7.22,3.3.28,4.81a25.29,25.29,0,0,1-.56,4.94,24,24,0,0,0-4,.33l-2.07-.23-2.11.28a6.83,6.83,0,0,1-2.2-.52l.18-2.45c-.06-.09-.11-.14-.14-.14a14.1,14.1,0,0,1-2.82,2.87c-1.32.13-2.66.3-4,.52a20.72,20.72,0,0,1-4.52-.75,8.19,8.19,0,0,1-2-1.6,6.27,6.27,0,0,1-1.61-2.41l-.42-1,.14-2.22a24.48,24.48,0,0,1-.33-2.54l0-2-.24-2.59.14-2.4-.28-2.59a23.15,23.15,0,0,0,.38-4v-.66a9.36,9.36,0,0,1,2.54-.33h1.65Z"/><path class="cls-1" d="M833.67,478.58q4.71.51,4.71.75a14.13,14.13,0,0,1,1.79,1.36l1.18,1.65a22,22,0,0,1,1.13,6.55c.18,1.2.28,1.95.28,2.26l-.19,2.5.09,2.45-.09,2.35-.05.05.33,2.5c-.25,1.47-.39,2.23-.42,2.26a16.84,16.84,0,0,1-2.45.52l-1.51,0-1.93,0h-.23a29.9,29.9,0,0,1-4.9-.38l0,0,.15-2.35v-1.7A17.81,17.81,0,0,1,832,497a22.84,22.84,0,0,1-.47-4.28l.1-2.22c-.07-1.6-.16-2.4-.29-2.4l-2-.71-1.83,1-.71,2.17.14,2.07-.09,2.17.09,2.78v1.17c0,.69,0,1.53-.09,2.5l.09,2.07a11.91,11.91,0,0,1-2,.57l-2.17-.1-2.17.19a20.67,20.67,0,0,1-4.24-.66l0-.05v0c0-.6-.16-2.15-.47-4.67l.23-2.4-.23-2.49.23-4.81-.09-3.11v-1.69a16.75,16.75,0,0,1,.28-3.91c.12-.66.22-1,.28-1h1.56a22.9,22.9,0,0,0,2.4-.33c1.13.12,1.91.19,2.35.19h1.32a8.2,8.2,0,0,1,2.5.28l.05,1v1.32l0,.23h.1c.69-1.25,1.13-1.88,1.32-1.88a7.32,7.32,0,0,1,1.83-.9A27.21,27.21,0,0,1,833.67,478.58Z"/><path class="cls-1" d="M872.48,468.4a7.66,7.66,0,0,1,1.93.57,12.78,12.78,0,0,1,.57,3.29l0,1.37a30.7,30.7,0,0,0-.29,4.52l.38,2.69v4.05l0,.42,0,.19,0,2.5c0,.81-.1,2.71-.29,5.7l0,1.17,0,2.08-.23,2.82v1.84a10.61,10.61,0,0,1-.38,2.59,16.75,16.75,0,0,1-2.54.42l-2.26.05h-.19a9.21,9.21,0,0,1-3.35-.38l-1.17-.28.14-2.4v-.05h0a11.33,11.33,0,0,1-1.74,1.74,8,8,0,0,1-1.56,1c-1.28.22-2,.33-2.26.33a36.61,36.61,0,0,1-6.64-.37,10.44,10.44,0,0,1-2-1.42,18,18,0,0,1-2.26-1.83c-.5-1.26-1.15-2.75-1.93-4.48l-.24-4.8c.16-1.76.38-3.39.66-4.9a8.23,8.23,0,0,1,1-2.4,11.19,11.19,0,0,1,1.79-2.41,5.13,5.13,0,0,1,1.7-1.32,8.31,8.31,0,0,1,2.64-1.17,8.49,8.49,0,0,1,2.68-.38l3.16-.28,2.31,1.41,1.55,1.32h.14v-2l.14-3.62v-1.7l-.28-2.92v-2.26a7.72,7.72,0,0,1,2.21-.57l2.36.19H870Zm-16.34,23.46.56,2.21,1.27,1.7,2.22.23a6.19,6.19,0,0,0,2.87-1.27c.66-.44,1-.74,1-.89l.33-2a9.87,9.87,0,0,0-.57-2.22,10.79,10.79,0,0,0-1.69-1.41l-2-.47a7.22,7.22,0,0,0-2.21.47l-1.18,1.7Z"/><path class="cls-1" d="M916.76,470.66q2,.15,6.45.33a14.32,14.32,0,0,0,1.79.1l0,0v.05a33.4,33.4,0,0,1-3.25,4.47,41.68,41.68,0,0,1-3.16,3.87,12.74,12.74,0,0,1-2.35,2.49,10,10,0,0,0-1.41,1.93l-1.75,1.84a24.08,24.08,0,0,1,2.83,3.58q1.6,2.17,3,4.38a47.38,47.38,0,0,1,2.73,4.05q3.63,4,3.67,4.43l.61.94v0c-1.53.28-3,.52-4.42.71l-2.26-.1L917,504a31.29,31.29,0,0,0-4.43-.57,49,49,0,0,1-3.44-5.23,16.23,16.23,0,0,1-2.31-3.06L904,490.59h0l-.29,2.49v.1l.05,1.55-.14,2.26a19.91,19.91,0,0,0,.42,4.24l0,2.12a23.25,23.25,0,0,1-4.38.66,21.45,21.45,0,0,1-5.94-.61c-.22,0-.33-.28-.33-.85l-.23-1.41.23-2.45c-.19-5.53-.34-8.29-.47-8.29l-.09-.8L893,487v-1.55c0-.6.05-1.5.14-2.69l-.33-2.31.38-2.31-.24-2.26a25.85,25.85,0,0,0,.38-4.42,18,18,0,0,1,4.66-.62h1.51a35.55,35.55,0,0,1,4.24.57v.05l-.1,2.16.15,2.4-.29,2.41a20.68,20.68,0,0,1,.38,3.86v.89a24.61,24.61,0,0,0,2.64-3.53,18.38,18.38,0,0,0,1.46-2.82,22.85,22.85,0,0,1,2.73-3.16,24.65,24.65,0,0,0,1.93-2.36Z"/><path class="cls-1" d="M944.32,478.58a9.41,9.41,0,0,1,2,.51l.24,2.22a29,29,0,0,1-.94,6.17q-.1.66-.24.66l-2.12-.43a18.29,18.29,0,0,0-2.36.43,8.36,8.36,0,0,0-1.64,2.26,7.33,7.33,0,0,0-.62,1.55,34.48,34.48,0,0,1,.33,4.57l-.37,2.41.28,2.26,0,.37v.33l0,1.6a15.58,15.58,0,0,1-2.17.33l-2.12-.09c-2.11.19-3.55.28-4.33.28a15.75,15.75,0,0,1-1.84-.37l-.57-2.45.05-4.39,0-.42-.15-2.64c0-.85.1-2.93.29-6.26l.05-.8-.1-2.45.24-2.5-.05-2.26a25.21,25.21,0,0,1,2.73-.38q1.7,0,6.27.29l1.08,0,.14,2.73.24.15a11.24,11.24,0,0,1,1.17-2.36,18.9,18.9,0,0,1,2.41-1Z"/><path class="cls-1" d="M961.7,478.29a18.9,18.9,0,0,1,3.58.61,26.79,26.79,0,0,0,3.39.81,18.9,18.9,0,0,1,2.21,1.69,15.8,15.8,0,0,1,2.17,3.11,11.92,11.92,0,0,1,1.32,2.78c.09,1.38.16,2.9.19,4.57l-.24,2.21c-1.44.19-2.29.29-2.54.29l-4.43.09-2.45-.38c-1.79,0-3.3.05-4.52.14l-2.26-.09,1.41,2.26,2.69.47a15.24,15.24,0,0,0,2.4-.42,10.41,10.41,0,0,1,1.69-1.18,10.85,10.85,0,0,1,3.07,1.6,15.72,15.72,0,0,0,2.77,1.23l1.65,1a9.93,9.93,0,0,1-1.41,2.21,39.82,39.82,0,0,1-3.72,2.69,13.9,13.9,0,0,1-3.86.8s-.19,0-.57,0l-2.31-.23-2.54.37a31.57,31.57,0,0,1-4.76-1.31c-1.29-.73-2-1.15-2.21-1.28a42.31,42.31,0,0,0-3-3.62l-1.08-2.31a21.16,21.16,0,0,0-.43-4.34l-.09-.47a34.73,34.73,0,0,0,.56-4.9,28.94,28.94,0,0,1,2.78-4.24,14.1,14.1,0,0,1,1.46-1.6,23.45,23.45,0,0,1,4-1.6Q957.17,479.1,961.7,478.29Zm-3.87,10,2.55.19c1.25-.13,2.26-.19,3-.19h2a10.39,10.39,0,0,0-1.37-2.17l-2.26-.61a17.39,17.39,0,0,0-2.5.85Z"/><path class="cls-1" d="M987.56,478.29l2.5.38h.51a16.18,16.18,0,0,1,5,.52,2.78,2.78,0,0,1,1.56.89,13.75,13.75,0,0,1,2.68,2.73,5.79,5.79,0,0,1,1,1.89l.56,4.1,0,2.26.47,2.12q-.24,3.81-.24,5c0,1.07,0,2.28.1,3.62a8.45,8.45,0,0,1-.24,2l-2.4.62-2.54-.29-2.41.24-2.3-.47c-.07-1.35-.16-2-.29-2h0a8.69,8.69,0,0,1-1.51,2l-2.07.75-4.76-.28a15.1,15.1,0,0,1-3.35-1.09,1.44,1.44,0,0,1-.85-.56,9.7,9.7,0,0,1-1.27-2.45,5.69,5.69,0,0,1-.47-1.41v-2.12l-.14-2.4a21.47,21.47,0,0,1,2.78-3.26,8.3,8.3,0,0,1,2-1.22,10.9,10.9,0,0,1,3.67-1.18,31.49,31.49,0,0,1,4.38-.28,7.35,7.35,0,0,1,1.32-.09,8.84,8.84,0,0,0-.61-1.94l-2.07-.33-2.92.66-2.26,1.42h-.14a16.26,16.26,0,0,1-2.78-2.5L978,482.91v-.05c1.06-1.19,1.77-1.79,2.12-1.79a24.44,24.44,0,0,0,3.2-1.84,9.93,9.93,0,0,1,2.4-.8Zm3.86,15.64-2.21-.14-2.08.66-.94,1.88a13.28,13.28,0,0,0,.71,1.65H988l.61,0,2.55-.85a23.39,23.39,0,0,0,.89-3.44Z"/><path class="cls-1" d="M1018.65,478.29a22.84,22.84,0,0,1,4.75,1,29.07,29.07,0,0,1,3.58,2.31v0c-2.16,2.55-3.83,4.56-5,6,0,.07,0,.1-.14.1a10.12,10.12,0,0,0-2.87-1.42l-1.65-.47a8.39,8.39,0,0,0-1.6,1.23,17.17,17.17,0,0,0,3.95,1.55,7.89,7.89,0,0,1,5.42,3.21,9.88,9.88,0,0,1,.94,2.26l.38,1.93a15.32,15.32,0,0,1-.52,3.77,2.33,2.33,0,0,1-.71,1.41c-.62.91-1.14,1.43-1.55,1.55a13.91,13.91,0,0,1-3.44,1.42l-2.35.52-2.31-.1L1013,505c-1.47-.34-3.1-.69-4.89-1a16.4,16.4,0,0,1-2.31-1.23l-1.6-1.55a54,54,0,0,0,4.85-5.56l.42-.47h0a13,13,0,0,0,1.46,1.6,8.27,8.27,0,0,0,2,.85l1.84.09,1.32-1.13a7.48,7.48,0,0,0-1.6-1.32c-1.7-.19-2.54-.36-2.54-.52l-3.73-1.6q-1.74-1.74-1.74-2.16a6.1,6.1,0,0,1-.85-2.31l-.18-1.32a41.29,41.29,0,0,1,1.13-4.52l1.22-1.79a50.07,50.07,0,0,1,6.27-2.64l2.26.19Z"/><path class="cls-1" d="M1037.07,479c1.28.19,2.68.35,4.19.47h0q0,1.32.29,6V486l-.14,3.06q.09,1.37.09,4.47l-.14,2.83,0,2v.38c-.19,2-.29,3.67-.29,4.9a21.36,21.36,0,0,1-4.71.37h-.85a35.59,35.59,0,0,1-5.13-.52l.28-2.3-.19-2.45.19-2.41-.28-2.4,0-1v-1l0-.42-.23-2.5.42-2.35,0-.19-.1-2.26.1-2.45-.1-2.26,0,0A60.51,60.51,0,0,1,1037.07,479Zm-1-12.43a7.75,7.75,0,0,1,2.87.94c.82.41,1.29.78,1.41,1.13a4.09,4.09,0,0,1,.94,1.6l.1,1.88c-.1,1.64-.25,2.45-.47,2.45a5.73,5.73,0,0,1-1.32,1.7,12.33,12.33,0,0,1-1.46,1l-2.07.28a8.59,8.59,0,0,1-2.5-.57c-1.16-.62-1.74-1-1.74-1.17a5.28,5.28,0,0,1-1.09-1.84l-.14-1.93c.13-1.54.25-2.31.38-2.31a8.69,8.69,0,0,1,1.46-1.7,8,8,0,0,1,2.54-1.22Z"/><path class="cls-1" d="M1077.67,470.66q2.31.48,2.31.66l2,4.19a12.28,12.28,0,0,0,1.13,3.25c.28.6.7,1.73,1.27,3.39a33.16,33.16,0,0,1,2.31,4.86l2.21,5.84a18.89,18.89,0,0,0,1.32,3.77,14.82,14.82,0,0,1,.8,2.73,7.64,7.64,0,0,1,1.18,3.15l.23,1.09a19.9,19.9,0,0,1-4.43.38l-.09,0-7.25-.42a20.19,20.19,0,0,1-.71-2.69l-.9-2.16-2.07.37-2.07-.14-4.15.24-2-.47a49.3,49.3,0,0,1-1.41,4.85l0,.05c-1.92.15-4.16.23-6.74.23h-2.68l-2.31-.52v-.05q1.08-2.73,2.73-7.48a36.93,36.93,0,0,0,1.93-5.47,43.18,43.18,0,0,0,2.12-5.09,38.24,38.24,0,0,0,1.37-3.72l2.12-4.14,1.46-4.29,1.18-1.93a39.11,39.11,0,0,1,4.52-.38l2.31.14ZM1074,482.58a18.93,18.93,0,0,0-1.32,3.63,13.3,13.3,0,0,0-.94,2.54l-.24,1.74h0l2.26.05,2.83-.14a14.69,14.69,0,0,1-1-3.3,14.44,14.44,0,0,0-1.13-3.16l-.48-1.36Z"/><path class="cls-1" d="M1103.48,468.4a16.19,16.19,0,0,1,2.31.61l0,.14,0,1.94v1.69c0,1.41,0,2.44,0,3.06l-.28,2.26.38,4.57c-.07.73-.1,1.76-.1,3.11v1.32l0,.14,0,.05,0,2.87v3.21l0,3.1-.33,2.31.09,2.31a14.76,14.76,0,0,1-.38,2.31l-4.24.61h-1.74c-.31,0-1.82-.22-4.52-.66l-.24-2.26.1-2.31q-.24-2.49-.24-6.78l.43-2.54c0-1.51-.07-3-.19-4.38l0-1.23v-2.17l.09-3.58-.14-2.26c.15-2.95.23-4.85.23-5.7v-.33c0-.59,0-.89.15-.89,3-.35,5-.52,6-.52Z"/><path class="cls-1" d="M1120,478.29l2.5.38h.51a16.18,16.18,0,0,1,5,.52,2.78,2.78,0,0,1,1.56.89,13.46,13.46,0,0,1,2.68,2.73,5.79,5.79,0,0,1,1,1.89l.56,4.1,0,2.26.47,2.12q-.24,3.81-.24,5c0,1.07,0,2.28.1,3.62a8.45,8.45,0,0,1-.24,2l-2.4.62-2.54-.29-2.41.24-2.3-.47c-.07-1.35-.16-2-.29-2h0a8.69,8.69,0,0,1-1.51,2l-2.07.75-4.76-.28a15.1,15.1,0,0,1-3.35-1.09,1.38,1.38,0,0,1-.84-.56,9.54,9.54,0,0,1-1.28-2.45,5.69,5.69,0,0,1-.47-1.41v-2.12l-.14-2.4a21.47,21.47,0,0,1,2.78-3.26,8.3,8.3,0,0,1,2-1.22,10.9,10.9,0,0,1,3.67-1.18,31.49,31.49,0,0,1,4.38-.28,7.35,7.35,0,0,1,1.32-.09,8.84,8.84,0,0,0-.61-1.94l-2.07-.33-2.92.66-2.26,1.42h-.14a16.26,16.26,0,0,1-2.78-2.5l-2.45-2.73v-.05c1.06-1.19,1.77-1.79,2.12-1.79a24.44,24.44,0,0,0,3.2-1.84,9.93,9.93,0,0,1,2.4-.8Zm3.86,15.64-2.21-.14-2.08.66-.94,1.88a13.28,13.28,0,0,0,.71,1.65h1.08l.61,0,2.55-.85a23.39,23.39,0,0,0,.89-3.44Z"/><path class="cls-1" d="M1158.69,478.58a8.74,8.74,0,0,1,2.68,1.5,4,4,0,0,1,1.46,1.51l.57.75a8.52,8.52,0,0,1,1.65-1.83,11.75,11.75,0,0,1,3-1.56c0-.15.53-.23,1.6-.23l1.08-.05c1.66.19,3.16.41,4.48.66a8.8,8.8,0,0,1,2.45,2.35,9,9,0,0,1,1.41,2.64,23.15,23.15,0,0,1,.28,3.25c.1.66.21,2.4.33,5.23.09.63.19,3.42.28,8.39a7.21,7.21,0,0,1-.66,2.21q-1.92.24-5.6.42s-.21.05-.61.05c-1.35-.19-2.75-.34-4.2-.47v0a19.37,19.37,0,0,0,.33-3.11v-.51l-.23-3.11v-1.89c0-.91-.08-2.49-.24-4.76v-1c0-.48-.09-.71-.28-.71l-1.65-.61a6.1,6.1,0,0,0-1.55,1.13l-.8,1.93a28.21,28.21,0,0,1,.47,4.33l-.19,2.08.28,2.11-.19,4.1a63.43,63.43,0,0,1-6.87.52h-1.65c-1.48-.19-2.22-.34-2.22-.47l-.28-2,.28-2.26V497.7l-.19-2.64L1154,493a38,38,0,0,0-.57-4.24,11.64,11.64,0,0,0-1.41-1.23q-1.36.68-1.89,1l-.37,2.27.09,2.07c-.19,1.91-.28,3.34-.28,4.29l.23,2.16-.33,2.17.24,1.88a17.06,17.06,0,0,1-3,.52,15,15,0,0,1-2.07.14h-3.2a6.36,6.36,0,0,1-2.12-.52,22.28,22.28,0,0,1-.71-4.24v0a40.33,40.33,0,0,1,.28-4.53,24.45,24.45,0,0,0-.38-4.33l.38-2.17c-.06-1.85-.14-3.31-.23-4.38a23.32,23.32,0,0,1,.61-4.19,33.36,33.36,0,0,1,4.52-.33,18.31,18.31,0,0,1,3.72-.28,9.06,9.06,0,0,1,2,.61l.09,2.64.15.05a8.38,8.38,0,0,1,1.17-2,6.2,6.2,0,0,1,2.31-1.13,6.58,6.58,0,0,1,1.32-.38C1155.69,478.76,1157.06,478.7,1158.69,478.58Z"/></g></g></svg>