<svg width="48" height="48" viewBox="0 0 48 48" fill="none" xmlns="http://www.w3.org/2000/svg">
<path d="M22.3042 47.7485C23.908 46.6565 24.905 45.9633 26.1995 44.67L41.7178 30.7852C42.2833 41.1516 33.6131 49.3192 22.3042 47.7485Z" fill="#FCC827"/>
<path d="M5.54445 28.2625C5.52309 26.8262 5.79576 25.4302 6.17272 24.0593C6.82864 21.6794 7.91429 19.4868 9.21482 17.3996C11.4226 13.8537 14.1807 10.7588 17.131 7.82351C18.9497 6.01324 20.8224 4.26078 22.7491 2.56612C23.6023 1.8122 24.4743 1.07838 25.3438 0.340784C25.4242 0.27293 25.4858 0.0794224 25.6379 0.215129C25.7635 0.320679 25.6718 0.438794 25.5976 0.544344C25.1352 1.21157 24.7055 1.90392 24.2041 2.54099C22.4965 4.71105 22.1346 7.17638 22.5417 9.82895C22.6146 10.3027 22.6825 10.7789 22.7667 11.2514C22.7993 11.4336 22.8395 11.5969 22.5769 11.5969C21.1432 11.5969 20.4948 12.5908 19.9796 13.6991C19.477 14.7873 19.57 15.8842 20.0802 16.9661C20.9937 18.91 22.3671 20.5385 23.6412 22.2361C25.3765 24.5481 27.1734 26.8149 28.4563 29.4348C30.2016 32.9959 30.0307 36.4715 28.1447 39.9194C26.4358 43.0382 23.9641 45.4482 21.1218 47.5203C20.7775 47.7716 20.4621 47.7163 20.1166 47.6459C15.9976 46.7663 12.6829 44.5988 10.0479 41.3418C8.04642 38.871 6.63703 35.9749 5.9277 32.8752C5.5721 31.3536 5.48916 29.8093 5.54445 28.2625ZM8.12791 28.9146C8.08518 29.4775 8.22969 30.1975 8.32142 30.9251C8.73356 34.1745 9.98131 37.0884 11.8749 39.7448C13.1714 41.5598 14.7624 43.1453 16.5819 44.4354C16.7767 44.5762 16.9589 45.0298 17.1926 44.781C17.4263 44.5322 17.0129 44.2935 16.832 44.0911C16.1509 43.343 15.5268 42.545 14.9648 41.7037C12.5974 38.12 11.0959 34.2147 10.5543 29.9349C10.2062 27.1705 10.445 24.4777 11.0707 21.7925C11.4477 20.1879 12.0307 18.6512 12.5937 17.1106C12.6125 17.0579 12.9493 16.9749 12.6389 16.8279C12.4265 16.7261 12.4454 16.9234 12.3876 16.9913C11.8121 17.7075 11.3597 18.4991 10.9086 19.3008C9.25377 22.226 8.2121 25.3422 8.12791 28.9146V28.9146Z" fill="#05BBED"/>
<path d="M27.833 0C27.8028 1.75916 27.8192 3.47686 28.2012 5.1644C28.8935 8.23162 30.3473 10.8063 32.9509 12.6597C33.2713 12.8871 33.5515 12.9864 33.98 12.8934C34.3079 12.8202 34.6493 12.8363 34.9688 12.9401C35.2883 13.0438 35.5741 13.2314 35.7964 13.4832C36.0187 13.735 36.1694 14.0419 36.2327 14.3718C36.296 14.7017 36.2696 15.0425 36.1564 15.3587C36.0144 15.7759 36.0923 15.8438 36.5069 15.8614C37.82 15.8978 38.5626 16.8565 38.2736 18.1483C38.1819 18.5604 38.2435 18.7037 38.6757 18.8205C38.915 18.8803 39.1387 18.9906 39.3317 19.1442C39.5248 19.2977 39.6826 19.4908 39.7947 19.7105C39.9067 19.9302 39.9704 20.1714 39.9813 20.4178C39.9923 20.6642 39.9503 20.9101 39.8581 21.1388C39.6747 21.6126 39.6445 21.8287 40.225 22.0184C41.1876 22.3288 41.6072 23.5476 41.1448 24.5315C40.9739 24.8947 40.9915 25.0341 41.3723 25.2214C42.6288 25.8597 42.8047 27.3575 41.7379 28.2924C41.42 28.5713 41.3371 28.8101 41.4514 29.2034C42.1224 31.5292 41.5067 33.6917 40.4198 35.7135C38.3817 39.5007 35.268 42.1018 31.2571 43.6297C29.7712 44.1909 28.2199 44.5604 26.6405 44.7292C26.5036 44.7443 26.3553 44.8285 26.2008 44.6727C26.4332 44.2329 26.829 43.9187 27.1557 43.5544C28.6862 41.8128 29.9478 39.9104 30.6942 37.6938C31.6868 34.7485 31.2759 31.9137 29.8875 29.1971C28.7138 26.8988 27.1783 24.8356 25.6152 22.7962C24.2606 21.0283 22.8307 19.3118 21.8003 17.3227C21.3442 16.4431 20.9924 15.5208 21.2977 14.4942C21.6747 13.2377 22.7314 12.5579 24.0018 12.8683C24.6841 13.0354 24.5735 12.7539 24.4642 12.3355C24.0567 10.84 23.875 9.29202 23.9251 7.74283C24.0508 4.72712 25.3199 2.23791 27.4837 0.17466C27.5279 0.127961 27.5767 0.0858615 27.6294 0.0490052C27.6955 0.0257921 27.7637 0.00937215 27.833 0V0ZM36.5245 18.3745C36.9882 18.3443 37.232 18.0892 37.2345 17.6494C37.237 17.2096 36.9316 16.9445 36.517 16.9395C36.1023 16.9345 35.8146 17.226 35.8146 17.6645C35.8146 18.103 36.0986 18.338 36.5245 18.3745ZM39.5063 24.4197C39.9436 24.3908 40.215 24.1332 40.2112 23.706C40.2075 23.2787 39.9348 22.9734 39.5013 22.9809C39.4055 22.9776 39.3102 22.994 39.2211 23.0292C39.132 23.0643 39.051 23.1174 38.9834 23.1852C38.9157 23.253 38.8627 23.334 38.8277 23.4232C38.7928 23.5123 38.7765 23.6077 38.78 23.7035C38.7737 24.1458 39.0527 24.3858 39.5063 24.4235V24.4197ZM38.1367 21.2557C38.5589 21.2306 38.824 20.968 38.8315 20.5508C38.8391 20.1336 38.6116 19.8396 38.1379 19.8396C37.6642 19.8396 37.4255 20.0909 37.4142 20.5257C37.4028 20.9604 37.6667 21.2067 38.1367 21.2557ZM33.6772 14.7443C33.7199 15.2092 33.9775 15.4454 34.4135 15.4291C34.8495 15.4128 35.1134 15.1351 35.0946 14.7066C35.0757 14.2781 34.8093 14.0218 34.3608 14.0369C33.9122 14.0519 33.7086 14.3384 33.6734 14.7443H33.6772ZM23.5231 15.8865C23.9 15.8664 24.1425 15.5799 24.1513 15.1677C24.1601 14.7556 23.8787 14.4741 23.425 14.4854C22.9714 14.4968 22.6975 14.7443 22.7214 15.1866C22.7352 15.5925 22.9589 15.894 23.5193 15.8865H23.5231ZM40.5932 27.556C41.0079 27.5485 41.273 27.3047 41.2667 26.8687C41.2667 26.4503 41.0267 26.1525 40.5718 26.1525C40.117 26.1525 39.8594 26.4176 39.8594 26.8498C39.8594 27.2821 40.0881 27.5472 40.5894 27.556H40.5932Z" fill="#0DA95B"/>
</svg>
